<?xml version="1.0" encoding="UTF-8"?> <!-- Creator: CorelDRAW 2017 --> <svg xmlns="http://www.w3.org/2000/svg" xmlns:xlink="http://www.w3.org/1999/xlink" xml:space="preserve" width="80mm" height="50mm" style="shape-rendering:geometricPrecision; text-rendering:geometricPrecision; image-rendering:optimizeQuality; fill-rule:evenodd; clip-rule:evenodd" viewBox="0 0 8000 5000"> <defs> <style type="text/css"> <![CDATA[ .fil0 {fill:#F2F2F2} ]]> </style> </defs> <g id="Layer_x0020_1"> <metadata id="CorelCorpID_0Corel-Layer"></metadata> <path class="fil0" d="M3619.56 4805.82c630.87,-26.33 1019.37,27.26 1618.34,-367.13 362.9,-239.01 810.2,-732.78 901.32,-1117.72 -79.66,-42.43 -791.16,-25.76 -927.91,-16.62 -69.89,70.41 -128.12,155.9 -211.08,238.44 -460.98,458.76 -1221.01,539.29 -1702.85,268.54 -152.18,-85.49 -416.95,-258.42 -483.54,-403.53 -247.78,-204.01 -394.6,-789.51 -316.65,-1188.39 162.51,-831.73 906.84,-1365.03 1774.25,-1203.72 313.6,58.34 778.14,336.94 897.54,604.13l29.02 20.76c155.22,9.29 325.99,3.09 483.12,3.04 86.63,0 173.04,-0.77 259.56,1.55 111.45,2.99 180.83,32.47 187.95,-63.6 -125.39,-230.28 -182.74,-377.41 -347.62,-578.63 -133.9,-163.43 -310.61,-329.5 -487.77,-450.4 -392.79,-268.07 -853.26,-432.64 -1478.71,-409.62 -2384.51,200.61 -2956.64,3252.8 -1004.66,4367.16 447.45,255.42 618.68,202.92 809.69,295.74z"></path> <ellipse class="fil0" cx="3964.2" cy="2475.65" rx="899.43" ry="883.27"></ellipse> </g> </svg> 