<?xml version="1.0" encoding="UTF-8"?> <!-- Creator: CorelDRAW 2017 --> <svg xmlns="http://www.w3.org/2000/svg" xmlns:xlink="http://www.w3.org/1999/xlink" xml:space="preserve" width="70cm" height="15cm" style="shape-rendering:geometricPrecision; text-rendering:geometricPrecision; image-rendering:optimizeQuality; fill-rule:evenodd; clip-rule:evenodd" viewBox="0 0 70000 15000"> <defs> <style type="text/css"> <![CDATA[ .fil0 {fill:#171517} .fil3 {fill:#E8C749} .fil2 {fill:#EAC832} .fil4 {fill:#F1CF6C} .fil1 {fill:#FECF00} ]]> </style> </defs> <g id="Layer_x0020_1"> <metadata id="CorelCorpID_0Corel-Layer"></metadata> <g id="_2262212034896"> <path class="fil0" d="M16039.16 11050.74c1056.28,-45.35 1706.76,46.96 2709.61,-632.46 607.61,-411.75 1356.54,-1262.36 1509.09,-1925.51 -133.36,-73.1 -1324.64,-44.38 -1553.6,-28.64 -117.03,121.3 -214.52,268.57 -353.41,410.77 -771.83,790.32 -2044.35,929.05 -2851.1,462.61 -254.8,-147.27 -698.1,-445.18 -809.6,-695.16 -414.87,-351.45 -660.68,-1360.09 -530.17,-2047.25 272.09,-1432.84 1518.34,-2351.57 2970.63,-2073.67 525.07,100.49 1302.86,580.45 1502.78,1040.75l48.57 35.75c259.9,16.01 545.81,5.33 808.91,5.25 145.03,0 289.72,-1.34 434.57,2.66 186.61,5.16 302.77,55.94 314.7,-109.56 -209.94,-396.71 -305.97,-650.16 -582.03,-996.81 -224.2,-281.55 -520.05,-567.64 -816.68,-775.91 -657.65,-461.82 -1428.62,-745.32 -2475.82,-705.66 -3992.41,345.58 -4950.33,5603.64 -1682.11,7523.37 749.18,440.02 1035.87,349.58 1355.66,509.47z"></path> <path class="fil0" d="M46175.21 3923.47c280.47,-47.31 933.8,-25.17 1244.09,-17.61 1449.36,35.49 1184.01,1924.09 766.03,2363.49 -359.29,377.59 -1017.89,287.33 -1594.21,292.58 -245.12,2.22 -403.12,73.27 -424.55,-149.67l8.64 -2488.79zm-1117.47 3451.45c756.02,11.21 2666.4,84.13 3279.71,-65.98 901.65,-220.64 1332.08,-974.85 1331.9,-2070.82 -0.08,-1134.39 -412.19,-1851.43 -1339.85,-2077.76 -679.95,-165.85 -2470.71,-94.26 -3290.34,-81.19 -19.01,499.7 -35.69,4017.14 18.58,4295.75z"></path> <path class="fil0" d="M38722.36 6004.96l-1252.91 5.42c-72.42,617.8 310.64,1013.36 701.91,1211.94 869.84,441.71 4065.88,671.69 3782.91,-1419.85 -133.8,-988.9 -1735.79,-1036.03 -2634.76,-1173.7 -1211.85,-185.42 -348.75,-1262.71 808.13,-833.36 353.67,131.26 298.27,270.26 446.67,541.05l1234.76 -6.58c32.49,-533.93 -394.65,-950.13 -725.51,-1110.47 -707.17,-342.64 -2466.91,-394.04 -3153.26,152.16 -325.32,258.97 -557.04,917.85 -296.11,1451.25 434.58,888.05 2089.12,657.99 2793.28,973.15 423.08,189.34 429.82,854.09 -481.51,906.73 -675.54,38.95 -1105.97,-74.97 -1223.6,-697.74z"></path> <path class="fil0" d="M33647.31 6014.03l-1246.08 -3.73c-110.54,1259.69 1282.72,1493.84 2351.01,1490.1 584.96,-2.13 1175.37,-89.37 1587.99,-348.34 693.79,-435.4 1000.7,-1900.51 -467.76,-2250.1 -550.22,-130.99 -1106.66,-180.08 -1667.51,-280.04 -1155.67,-205.87 -245.12,-1272.49 847.71,-829.35 411.85,167.01 360.42,388.62 446.85,534.55l1235.36 4.8c49.44,-531.17 -371.31,-936.6 -719.45,-1116.06 -633.54,-326.38 -2521.8,-396.19 -3154.04,160.43 -443.74,390.66 -952.21,1771.74 888.25,2124.88 437.95,84.04 2355.33,127.97 1802.86,922.29 -265.95,382.31 -1154.8,323.89 -1514.87,157.68 -304.15,-140.34 -266.56,-279.87 -390.32,-567.11z"></path> <path class="fil0" d="M26636.63 5737.19c-1591.1,-15.92 -1096.55,-106.62 -1370.19,384.89 -66.46,119.34 -169.23,232.2 -280.03,317.57 -531.03,409.08 -2063.11,408.01 -2066.82,-1201.18 -3.63,-1550.31 1398.02,-1678.81 2037.95,-1249.28 199.48,133.84 316.25,308.67 391.96,523.62 104.93,298.18 40.89,196.18 1264.14,194.75 29.74,-648.12 -445.72,-1176 -832.5,-1401.88 -529.99,-309.48 -1166.3,-350.83 -1885.92,-329.04 -1431.9,43.3 -2176.16,802.41 -2172.79,2301.85 6.14,2723.83 3112.12,2430.27 4080.49,1837.11 415.47,-254.51 823.08,-772.53 833.71,-1378.41z"></path> <path class="fil0" d="M28922.73 5692.73c16.77,-214.23 520.75,-1512.96 627.66,-1615.06 113.23,286.63 565,1372.01 576.41,1616.21l-1204.07 -1.15zm-1880.13 1682.73l1182.29 0.97c134.05,-263.85 222.99,-575.64 363.7,-869.82l1873.74 -10.05c128.95,219.3 255.92,618.42 359.98,875.96l1206.4 3.2 -1799.32 -4276.63 -1394.9 -22.32 -908.57 2140.98c-157.65,382.13 -870.53,1928 -883.32,2157.71z"></path> <path class="fil0" d="M51943.96 6086.6l5.61 1279.07c245.64,26.59 531.64,8.54 779.27,12.19 473.03,6.93 353.32,124.77 353.41,-1250.89 0,-268.21 20.74,-290.89 138.9,-464.75l1696.38 -2567.31 -1347.89 -20.01 -1040.63 1821.11c-68.97,-28.46 -967.77,-1554.85 -1080.39,-1811.86l-1328.53 -7.02c81.25,228.28 1156.88,1817.45 1423.78,2205.63 165.94,241.36 400.17,491.52 400.09,803.84z"></path> <path class="fil0" d="M15496.81 5960.49l-241.4 393.34c-111.24,446.25 -231.12,733.49 -32.33,1245.55 474.68,1222.52 2014.45,1256.93 2630.01,322.73 480.56,-729.4 247.97,-1636.31 -289.46,-2079.45 -303.37,-250.16 -599.22,-363.1 -1103.11,-331.26 -557.4,35.3 -769.59,376.71 -963.71,449.09z"></path> <polygon class="fil0" points="42798.27,7376.26 43911.93,7375.46 43926.97,3091.18 42800.86,3075.53 "></polygon> <path class="fil0" d="M28631.29 9289.85c160.67,68.03 1174.33,1424.74 1347.63,1659.34 75.19,101.82 90.75,141.57 250.39,158.02 354.11,36.55 270.87,-28.01 270.96,-858.97 0,-451.49 35.95,-1090.99 -11.32,-1519.9 -254.28,-24.54 -326.37,-68.38 -335.61,181.69l4.32 1591.84c-142.35,-35.39 -47.45,18.5 -159.21,-98.45 -157.82,-165.14 -1210.29,-1613.09 -1327.66,-1663.43 -55.93,-23.92 -144.43,-30.32 -210.29,-24.19 -67.68,6.23 -56.35,9.96 -99.66,22.06 -6.91,1.87 -22.81,21.25 -27.57,12.54 -97.49,-178.13 -59.89,2215.24 -51.6,2342.85l345.3 1.96 4.32 -1805.36z"></path> <path class="fil0" d="M52673.35 11112.99c91.87,-411.21 -81.51,-1575.56 54.19,-1825.54 174.68,90.44 1210.46,1578.32 1455.41,1806.25 366.73,26.5 404.24,86.7 399.05,-276.49l-7 -2075.44 -329.47 -4.62 -7.7 1816.48c-109.25,-49.54 -685.83,-824.38 -829.13,-1006.87 -151.51,-192.97 -274.42,-340.06 -421,-534.37 -219.54,-290.89 -142.18,-311.97 -602.43,-286.89 -35.87,241.35 -38.29,2181.27 7.09,2386.69l280.99 0.8z"></path> <path class="fil0" d="M36838.08 9278.46c0.95,-310.36 -70.1,-239.84 903.46,-239.84 604.32,0 628.7,739.9 0,739.9 -299.22,0.8 -603.55,26.05 -899.92,-19.48l-3.54 -480.58zm1389.2 646.52c211.07,-142.55 310.72,-224.99 308.21,-565.86 -6.39,-849.9 -900.17,-622.68 -2038.21,-625.26l16.59 2371.22c551.87,-12.72 236.57,1.16 336.39,-1004.82 241.23,-34.77 930.78,-53.62 1105.11,52.03 286.17,173.59 139.5,626.68 269.84,956.79l357.91 -0.26c-13.49,-110.01 -45.72,-146.56 -63.44,-292.94 -85.48,-706.1 82.19,-419.57 -292.4,-890.9z"></path> <path class="fil0" d="M25297.56 10167.4c-142.61,-587.29 213.05,-1051.23 664.22,-1153.68 595.42,-135.17 1047.54,165.32 1149.79,650.97 291.27,1382.67 -1558.26,1555.91 -1814.01,502.71zm543.74 -1453.2c-766.13,237.62 -1041.15,837.46 -856.1,1587.93 167.67,680.32 869.06,986.68 1651.69,811.49 578.31,-129.4 1027.06,-814.95 805.89,-1605.98 -164.4,-587.83 -853.51,-1025.45 -1601.48,-793.44z"></path> <path class="fil0" d="M51170.31 10248.24c-419.62,1133.41 -2231.13,544.25 -1738.12,-723.17 395.85,-1017.63 2195.17,-511.26 1738.12,723.17zm-2125.68 -40.46c223.51,1394.06 2820.93,1328.79 2497.42,-598.94 -233.1,-1388.55 -2804.08,-1313.41 -2497.42,598.94z"></path> <path class="fil0" d="M31233.81 10318.76c37.34,737.41 588.16,859.06 1277.88,817.89 835.27,-49.98 909.08,-897.83 583.15,-1165.96 -366.55,-301.74 -1441.67,-164.61 -1443.31,-611.21 -1.12,-306.54 344.6,-397.78 663.1,-368.35 403.37,37.17 419.36,174.75 561.54,434.6l290.32 -3.73c148.06,-835.85 -1458.69,-1014.87 -1799.49,-353.23 -238.98,463.94 44.94,775.91 421.61,907.17 492.57,171.63 681.77,-22.23 1122.65,337.4 17.8,451.85 -248.14,542.03 -677.53,523.53 -568.46,-24.37 -583.24,-262.61 -667.34,-513.48l-332.58 -4.63z"></path> <path class="fil0" d="M23918.9 10198.97c-107.35,241 -114.95,362.84 -326.45,506.37 -415.39,282.09 -1361.03,192.89 -1340.63,-821.98 10.29,-509.39 281.59,-821.35 707.7,-884.94 805.01,-120.05 898.27,482.71 976.06,591.03l300.09 -2.67c143.13,-1091.34 -2341.16,-1469.12 -2339.08,338.2 1.9,1663.52 2280.39,1529.15 2352.56,271.95l-330.25 2.04z"></path> <path class="fil0" d="M44192.23 10213.2c-147.97,284.49 -247.54,718.73 -984.28,614.06 -914.35,-129.83 -932.42,-1704.51 43.82,-1831.15 675.63,-87.68 801.56,281.02 952.38,595.12l298.1 -0.98c163.27,-1089.21 -2329.66,-1489.84 -2319.46,335.09 3.72,654.61 358.69,1182.85 1024.38,1212.29 698.8,30.95 1249.19,-220.64 1312.2,-944.44l-327.14 20.01z"></path> <path class="fil0" d="M39343.45 8735.73c-20.22,323.34 -44.86,1476.58 8.99,1747.82 108.9,548.7 505.53,656.03 1064.31,654.52 536.04,-1.42 918.67,-192.62 980.9,-727.71 33.19,-285.64 30.77,-1409.09 -9.07,-1692.6l-325.07 13.52c-35.09,435.93 -4.58,950.57 -8.38,1396.28 -4.24,485.56 -172.78,707.97 -678.14,710.73 -980.04,5.25 -652.12,-814.42 -711.24,-2094.83l-322.3 -7.73z"></path> <path class="fil0" d="M46329.92 9040.93l829.22 -1.07 -9.08 -286.62c-175.1,-86.7 -1749.18,-48.02 -2053.08,-27.65l23.08 327.61 826.89 1.6 8.12 2056.42 356.18 1.95 18.67 -2072.24z"></path> <path class="fil0" d="M34963.22 11107.75l25.58 -2068.15c228.52,-0.62 638.64,37.53 839.5,-27.3l-4.23 -291.16 -2065.87 -0.98 8.29 316.5c280.47,7.3 769.5,-83.77 816.6,93.47l18.67 431.13c-1.03,341.4 -21.35,1337.06 17.63,1552.8l343.83 -6.31z"></path> <path class="fil0" d="M47869.34 11079.38c328.53,75.86 333.8,53.27 333.8,-225.17l-10.98 -2127.91c-344.51,-25.97 -337.34,-42.33 -332.58,307.07 7.69,565.51 -29.65,1602.52 9.76,2046.01z"></path> </g> <g id="_2262212035760"> <path class="fil1" d="M16041.28 11050.73c-319.79,-159.89 -606.48,-69.45 -1355.66,-509.47 -3268.22,-1919.73 -2310.3,-7177.79 1682.11,-7523.37 -305.62,-71.41 -1498.36,-21.7 -1909.34,-25.35 -4581.27,-40.9 -9354.25,1.6 -13945.2,1.6l-18.24 8130.94c5019.22,0 10092.63,28.72 15104.85,-0.71 263.87,-1.51 238.29,7.38 441.48,-73.64z"></path> <path class="fil1" d="M15257.53 6353.82l241.4 -393.34c35.44,-171.1 3.8,-68.38 69.75,-149.04l368.37 -222.77c837,-458.26 2182.03,98.62 2265.35,1223.41 56.18,759.37 -47.1,721.04 -164.13,1007.57 -100.43,245.89 -143.91,399.56 -515.99,610.15 -175.37,99.24 -324.64,238.15 -504.5,250.6 -454.63,31.48 -1001.56,32.19 -1286.7,-222.95 -556.09,-497.38 -404.49,-353.76 -512.7,-649.72 -46.85,-128.41 -56.62,-41.62 -110.38,-250.51 -159.81,-621.26 -87.03,-653.37 -1.55,-966.13 43.65,-159.81 9.76,-238.25 151.08,-237.27zm-565.26 2288.52c111.5,249.98 554.8,547.89 809.6,695.16 806.75,466.44 2079.27,327.71 2851.1,-462.61 138.89,-142.2 236.38,-289.47 353.41,-410.77 228.96,-15.74 1420.24,-44.46 1553.6,28.64l30.68 -31.93c-22.73,-203.47 47.19,-363.19 91.79,-511.88 143.13,-476.93 51.34,-1891.18 -88.5,-2078.46 -184.36,-246.78 -1266.13,-195.56 -1459.65,-86.09 -42.78,-59.67 -73.64,-125.65 -150.22,-186.48l-48.57 -35.75c-210.03,-32.46 -302.34,-309.48 -684.62,-595.92 -167.59,-125.48 -127.49,-56.91 -432.67,-205.43 -645.56,-314.1 -1631.21,-247.22 -2205.55,226.24l-133.19 102.71c-6.65,4.72 -16.77,10.76 -23.42,15.48 -159.73,114.63 -104.93,123.25 -322.91,316.05 -178.82,158.3 -139.67,188.98 -270.96,369.77 -254.54,350.48 -184.44,139.18 -214.69,414.86 -32.07,291.6 -99.74,294.18 -131.29,485.82 -52.12,315.79 32.93,881.74 109.25,1141.68 71.56,243.94 -16.34,-17.96 91.1,158.03l275.71 650.88z"></path> </g> <path class="fil2" d="M15498.93 5960.48c194.12,-72.38 406.31,-413.79 963.71,-449.09 503.89,-31.84 799.74,81.1 1103.11,331.26 537.43,443.14 770.02,1350.05 289.46,2079.45 -615.56,934.2 -2155.33,899.79 -2630.01,-322.73 -198.79,-512.06 -78.91,-799.3 32.33,-1245.55 -141.32,-0.98 -107.43,77.46 -151.08,237.27 -85.48,312.76 -158.26,344.87 1.55,966.13 53.76,208.89 63.53,122.1 110.38,250.51 108.21,295.96 -43.39,152.34 512.7,649.72 285.14,255.14 832.07,254.43 1286.7,222.95 179.86,-12.45 329.13,-151.36 504.5,-250.6 372.08,-210.59 415.56,-364.26 515.99,-610.15 117.03,-286.53 220.31,-248.2 164.13,-1007.57 -83.32,-1124.79 -1428.35,-1681.67 -2265.35,-1223.41l-368.37 222.77c-65.95,80.66 -34.31,-22.06 -69.75,149.04z"></path> <path class="fil3" d="M14692.27 8642.34l-275.71 -650.88c-107.44,-175.99 -19.54,85.91 -91.1,-158.03 -76.32,-259.94 -161.37,-825.89 -109.25,-1141.68 31.55,-191.64 99.22,-194.22 131.29,-485.82 30.25,-275.68 -39.85,-64.38 214.69,-414.86 131.29,-180.79 92.14,-211.47 270.96,-369.77 217.98,-192.8 163.18,-201.42 322.91,-316.05 6.65,-4.72 16.77,-10.76 23.42,-15.48l133.19 -102.71c574.34,-473.46 1559.99,-540.34 2205.55,-226.24 305.18,148.52 265.08,79.95 432.67,205.43 382.28,286.44 474.59,563.46 684.62,595.92 -199.92,-460.3 -977.71,-940.26 -1502.78,-1040.75 -1452.29,-277.9 -2698.54,640.83 -2970.63,2073.67 -130.51,687.16 115.3,1695.8 530.17,2047.25z"></path> <path class="fil4" d="M18684.08 5597.92c76.58,60.83 107.44,126.81 150.22,186.48 193.52,-109.47 1275.29,-160.69 1459.65,86.09 139.84,187.28 231.63,1601.53 88.5,2078.46 -44.6,148.69 -114.52,308.41 -91.79,511.88l98.36 -36.37c3.46,-414.59 312.79,-1091.34 82.37,-2300.61 -26.71,-140.33 -126.97,-516.59 -229.13,-627.58 -11.93,165.5 -128.09,114.72 -314.7,109.56 -144.85,-4 -289.54,-2.66 -434.57,-2.66 -263.1,0.08 -549.01,10.76 -808.91,-5.25z"></path> </g> </svg> 